HIERARCHY
ROOT Hips
{
    OFFSET 0.0 0.0 0.0
    CHANNELS 6 Xposition Yposition Zposition Zrotation Xrotation Yrotation
    JOINT LeftHipJoint
    {
        OFFSET 0.1 0.0 0.0
        CHANNELS 3 Zrotation Xrotation Yrotation
        JOINT LeftUpLeg
        {
            OFFSET 122.30425893732027 0.0 0.0
            CHANNELS 3 Zrotation Xrotation Yrotation
            JOINT LeftLeg
            {
                OFFSET 0.0 0.0 -405.81743959486437
                CHANNELS 3 Zrotation Xrotation Yrotation
                JOINT LeftFoot
                {
                    OFFSET 0.0 0.0 -372.0357702793724
                    CHANNELS 3 Zrotation Xrotation Yrotation
                    End Site
                    {
                        OFFSET 0.0 -0.1 0.0
                    }
                }
            }
        }
    }
    JOINT LowerBack
    {
        OFFSET 0.0 0.0 0.1
        CHANNELS 3 Zrotation Xrotation Yrotation
        JOINT Spine
        {
            OFFSET 0.0 0.0 216.43112289693318
            CHANNELS 3 Zrotation Xrotation Yrotation
            JOINT Spine1
            {
                OFFSET 0.0 0.0 252.04013187033044
                CHANNELS 3 Zrotation Xrotation Yrotation
                JOINT LeftShoulder
                {
                    OFFSET 0.1 0.0 0.0
                    CHANNELS 3 Zrotation Xrotation Yrotation
                    JOINT LeftArm
                    {
                        OFFSET 142.40510853488502 0.0 0.0
                        CHANNELS 3 Zrotation Xrotation Yrotation
                        JOINT LeftForeArm
                        {
                            OFFSET 258.6255656787498 0.0 0.0
                            CHANNELS 3 Zrotation Xrotation Yrotation
                            JOINT LeftHand
                            {
                                OFFSET 231.66927789838928 0.0 0.0
                                CHANNELS 3 Zrotation Xrotation Yrotation
                                End Site
                                {
                                    OFFSET 0.1 0.0 0.0
                                }
                            }
                        }
                    }
                }
                JOINT Neck
                {
                    OFFSET 0.0 0.0 0.1
                    CHANNELS 3 Zrotation Xrotation Yrotation
                    JOINT Neck1
                    {
                        OFFSET 0.0 0.0 107.46675933699034
                        CHANNELS 3 Zrotation Xrotation Yrotation
                        End Site
                        {
                            OFFSET 0.0 0.0 115.2386314160405
                        }
                    }
                }
                JOINT RightShoulder
                {
                    OFFSET -0.1 0.0 0.0
                    CHANNELS 3 Zrotation Xrotation Yrotation
                    JOINT RightArm
                    {
                        OFFSET -142.40510853488502 0.0 0.0
                        CHANNELS 3 Zrotation Xrotation Yrotation
                        JOINT RightForeArm
                        {
                            OFFSET -258.6255656787498 0.0 0.0
                            CHANNELS 3 Zrotation Xrotation Yrotation
                            JOINT RightHand
                            {
                                OFFSET -231.66927789838928 0.0 0.0
                                CHANNELS 3 Zrotation Xrotation Yrotation
                                End Site
                                {
                                    OFFSET -0.1 0.0 0.0
                                }
                            }
                        }
                    }
                }
            }
        }
    }
    JOINT RightHipJoint
    {
        OFFSET -0.1 0.0 0.0
        CHANNELS 3 Zrotation Xrotation Yrotation
        JOINT RightUpLeg
        {
            OFFSET -122.30425893732027 0.0 0.0
            CHANNELS 3 Zrotation Xrotation Yrotation
            JOINT RightLeg
            {
                OFFSET 0.0 0.0 -405.81743959486437
                CHANNELS 3 Zrotation Xrotation Yrotation
                JOINT RightFoot
                {
                    OFFSET 0.0 0.0 -372.0357702793724
                    CHANNELS 3 Zrotation Xrotation Yrotation
                    End Site
                    {
                        OFFSET 0.0 -0.1 0.0
                    }
                }
            }
        }
    }
}
MOTION
Frames: 9
Frame Time: 0.03333333333333333
0.0 0.0 803.8828322595147 26.565080791470564 -1.007991199908257 3.6844900554884306 0.0 0.0 4.969616689786745e-17 -0.22753311209161287 -12.78156488753072 2.976576127745024 2.4133112537356296 30.985864588643434 -3.5658836742523294 -5.862219302097867e-32 -3.3793393490549868e-15 -1.987846675914698e-15 0.0 0.0 4.969616689786745e-17 -0.10833469877980181 -6.107615223912202 3.6942630516583157 6.679673092788856 2.26555625873009e-15 -2.1234403197346986e-15 -1.3793457181406746e-33 1.987846675914698e-16 7.951386703658792e-16 -10.028859502312136 -43.39222271277617 19.869036323497777 -94.48106628025457 -4.318697515909469e-15 -4.67039228472249e-15 0.0 0.0 0.0 -1.3793457181406746e-33 1.987846675914698e-16 7.951386703658792e-16 -11.625427806840134 -4.659678583628355 -2.683572684278572 -1.3793457181406746e-33 1.987846675914698e-16 7.951386703658792e-16 42.56953329044797 -52.76861045170619 2.774938996947226 103.28171464213764 2.907290036836024e-15 -1.3923585252272628e-14 -3.975693351829396e-16 0.0 0.0 0.0 0.0 4.969616689786745e-17 -0.16346282529284348 -9.066599696748996 -1.1219305921163107 -0.08725970787959576 43.14059054546033 0.8510928907222456 0.0 0.0 7.951386703658792e-16
0.0 0.0 803.8828322595147 26.689970043483964 -1.000875409749558 3.4865623127764467 0.0 0.0 -4.969616689786745e-17 -0.16321693275774427 -12.719284145935648 3.069584130131445 2.273323907884968 30.733162864475563 -3.4335700936096636 -3.1805546814635168e-15 -1.987846675914698e-16 -3.975693351829396e-16 0.0 0.0 -4.969616689786745e-17 -0.07584529735798579 -5.909537847898629 3.9916383091341054 6.839836973859668 4.421607046278011e-15 -2.6539061187324004e-15 0.0 0.0 0.0 -8.680271141190005 -40.801381924465076 21.10745163099997 -91.80732684686079 4.4264853195839854e-15 4.568362949966371e-15 0.0 0.0 0.0 0.0 0.0 0.0 -12.016042843667627 -5.031243166505752 -2.938032016751596 0.0 0.0 0.0 42.825152936692064 -52.208725930918085 3.13855755089754 102.06442912463206 -4.0003957095430816e-15 4.945760456612034e-15 0.0 0.0 0.0 0.0 0.0 -4.969616689786745e-17 -0.11785217240175198 -8.989858644864501 -1.0449649920532482 -0.27814238893642185 42.88427054936288 1.4218595431098136 -3.1805546814635168e-15 -3.975693351829396e-16 -1.1034765745125397e-32
0.0 0.0 803.8828322595147 26.766451230815928 -0.816069461349384 3.2129116604039076 0.0 0.0 -9.93923337957349e-17 -0.10746983800137085 -12.743801726412128 3.182029351333499 2.156674050323252 30.359966703395525 -3.268147676546776 3.1805546814635164e-15 1.1034765745125397e-32 3.9756933518293955e-16 0.0 0.0 -9.93923337957349e-17 -0.049383133030226525 -5.809859081670406 4.322924293587154 7.014686937689726 -9.6773979793947e-16 4.576293931754786e-16 -1.3793457181406746e-33 3.975693351829396e-16 3.975693351829396e-16 -6.969456073121467 -37.129441435285365 22.449516095649322 -87.63736154708313 5.922664909989527e-15 1.449942400052952e-14 0.0 0.0 0.0 -1.3793457181406746e-33 3.975693351829396e-16 3.975693351829396e-16 -12.721822993139552 -5.49215243541303 -3.142322010814498 -1.3793457181406746e-33 3.975693351829396e-16 3.975693351829396e-16 43.08396067054342 -51.69894284984214 3.4781764326870035 100.76108981710014 -2.8717480445580653e-15 -6.506358703412716e-15 -6.957463365701443e-16 0.0 0.0 0.0 0.0 -9.93923337957349e-17 -0.07894573063045693 -9.002699813170636 -0.8924434707045948 -0.36615624808603814 42.65400542425082 1.6623875671577264 0.0 0.0 0.0
0.0 0.0 803.8828322595147 26.856938779742688 -1.0434913038700735 2.952023674606605 0.0 0.0 -1.4908850069360235e-16 -0.05446941003039344 -12.570176828284506 3.232210862454025 2.043211220490152 30.308736400108295 -3.178932974863763 0.0 0.0 3.975693351829396e-16 0.0 0.0 -1.4908850069360235e-16 -0.02505618040306544 -5.602813152978123 4.590737152417625 7.273641594780745 -1.7316577776347657e-16 4.0937798396937026e-16 -6.3611093629270335e-15 3.975693351829396e-16 2.2069531490250793e-32 -5.45562725126371 -33.05006454018633 23.803325262333242 -83.63101190631588 1.934833122825828e-15 1.453340608820349e-14 0.0 0.0 0.0 -6.3611093629270335e-15 3.975693351829396e-16 2.2069531490250793e-32 -13.145788087120156 -5.679840208431184 -3.3937249071371864 -6.3611093629270335e-15 3.975693351829396e-16 2.2069531490250793e-32 43.0833581117403 -51.85888978054984 3.455718123448705 99.85246369402627 0.0 0.0 0.0 0.0 0.0 0.0 0.0 -1.4908850069360235e-16 -0.040249510267704056 -8.46900089366395 -0.797437868042595 -0.4834274112759228 42.06729051195798 2.0559969477930826 0.0 0.0 -1.5902773407317584e-15
0.0 0.0 803.8828322595147 27.13158108896632 -1.3121556352046169 2.7575286992998866 0.0 0.0 -1.987846675914698e-16 -0.03030562224995064 -12.19656012544727 3.276081316320394 1.9843549776857026 30.025725296213054 -3.1921828054254004 0.0 0.0 0.0 0.0 0.0 -1.987846675914698e-16 -0.014330714375911041 -5.3631708588481795 4.752072208392056 7.416589956885059 -5.951053956275452e-16 3.8570256935148494e-17 0.0 0.0 0.0 -4.304845079149767 -29.526904899712324 24.998799258637746 -80.08298865141428 5.25870990624367e-15 8.573520335298075e-15 0.0 0.0 0.0 0.0 0.0 0.0 -13.431116149526103 -5.868612614618591 -3.5336950868124264 0.0 0.0 0.0 43.267973378057945 -51.75105049448741 3.6862234516540955 98.74880649570754 1.1726817555776001e-14 5.869627535354796e-15 7.951386703658792e-16 0.0 0.0 0.0 0.0 -1.987846675914698e-16 -0.024011329349749422 -8.048500017575611 -0.71534451603144 -0.4965637463315532 41.6838033155704 2.1571550096058147 0.0 0.0 7.951386703658792e-16
0.0 0.0 803.8828322595147 27.223976998823428 -1.662502191673457 2.391279897249153 0.0 0.0 0.0 0.0125503723927924 -11.730655855379437 3.4509075962887126 1.9493742652198858 29.79560988543979 -3.0851488231799076 0.0 0.0 7.951386703658792e-16 0.0 0.0 0.0 0.004183809027227344 -5.127727388118961 5.007027248701604 7.691512253718244 1.1633570334511493e-15 -4.766698810474471e-16 0.0 0.0 0.0 -3.268821865454306 -25.70131397569932 26.462418293205676 -76.5706031523142 0.0 0.0 0.0 0.0 0.0 0.0 0.0 0.0 -13.356918960816317 -5.8607170038393015 -3.5389352774892284 0.0 0.0 0.0 43.28420355635811 -51.75278354670857 3.7397283188419803 97.65956514982003 -1.1670495324918742e-14 -5.98082906136776e-15 -3.975693351829396e-16 0.0 0.0 0.0 0.0 0.0 0.003534016541149713 -7.502002424358108 -0.3979506209076609 -0.38651488123222755 41.201069388292915 2.210741068818821 0.0 0.0 0.0
0.0 0.0 803.8828322595147 27.12376604138104 -1.7521303592963784 2.0390382610843822 0.0 0.0 9.93923337957349e-17 0.0408545503383973 -11.72945266577999 3.634393053338039 1.936020428141165 29.305511164452216 -2.8490378750472245 0.0 0.0 0.0 0.0 0.0 9.93923337957349e-17 0.01617013513955233 -5.059418536490668 5.132275649685853 8.131247832347007 5.666660132463849e-16 -4.3884974915603274e-16 0.0 0.0 0.0 -2.0103912604819762 -21.745457788871676 28.075169471881935 -72.82014336764833 3.231502644002791e-15 6.335379315455423e-15 1.3793457181406746e-33 4.9696166897867443e-17 -3.1805546814635164e-15 0.0 0.0 0.0 -13.44384329767952 -5.937976166459948 -3.4707970959191945 0.0 0.0 0.0 43.72573496846204 -51.708427912846254 4.402924863441312 96.28404053004782 -4.930790084702193e-16 -8.982443862649071e-15 0.0 0.0 0.0 0.0 0.0 9.93923337957349e-17 0.02042297898832826 -7.201325209557045 -0.01100012199862405 -0.16337235491833932 40.44648543906976 2.153813203113494 0.0 0.0 0.0
0.0 0.0 803.8828322595147 27.04655122380589 -2.0702441618609595 1.7658563262772622 0.0 0.0 0.0 0.08056531647948027 -11.358715772696097 3.6559351074823048 1.8060362256114397 28.9645039768254 -2.498975892823776 0.0 -1.5902773407317584e-15 0.0 0.0 0.0 0.0 0.03374532619863845 -4.997209558183098 5.271351222760583 8.444905975618124 -5.85452792020779e-17 -7.929804256060607e-16 0.0 0.0 0.0 -1.044799571649741 -17.76275200404963 29.971892212293437 -68.72282770924872 -3.040721873425297e-15 -4.005475089539528e-15 0.0 0.0 0.0 0.0 0.0 0.0 -13.37463772691449 -5.887570557782326 -3.4832289676560992 0.0 0.0 0.0 43.47472093439515 -51.24960739172103 4.487441739127602 95.69713954534606 4.470675638169738e-16 8.98485143158298e-15 0.0 0.0 0.0 0.0 0.0 0.0 0.042048948726481926 -6.621835348696058 0.1594112550421144 -0.1860728455263155 39.49969693578019 2.3550934192318245 0.0 0.0 -7.951386703658792e-16
0.0 0.0 803.8828322595147 26.858552329911358 -2.19081598907003 1.5575668801633586 0.0 -3.975693351829396e-16 0.0 0.0949888900994384 -11.108505047738497 3.6237696019685113 1.6807554668604392 28.10478500443388 -2.1015621608644395 0.0 0.0 -7.951386703658792e-16 0.0 -3.975693351829396e-16 0.0 0.04078812118577172 -4.981618334576922 5.356043018317804 8.743907392935709 6.249258166055803e-16 3.5095184376594123e-16 0.0 0.0 0.0 -0.07106138014563337 -13.545841296897946 31.76599422574281 -64.33512527749457 -3.4715681751029457e-16 3.538981809261032e-15 3.1805546814635168e-15 3.975693351829396e-16 -1.1034765745125397e-32 0.0 0.0 0.0 -13.50857394528532 -6.048714426943657 -3.6860042621026525 0.0 0.0 0.0 43.21482395430345 -51.166812007330606 4.754455289953383 95.24228251956254 -2.9665885935382796e-15 -1.562362167236444e-14 -7.951386703658791e-16 -4.4139062980501586e-32 6.361109362927033e-15 0.0 -3.975693351829396e-16 0.0 0.047973752170639865 -6.195057686973149 0.2998379489820003 -0.13107317219422238 38.04219189794412 2.558202761707715 0.0 0.0 1.5902773407317584e-15
